<?xml version="1.0" encoding="UTF-8" standalone="no"?>
<!-- Created with Inkscape (http://www.inkscape.org/) -->

<svg
   width="256"
   height="256"
   viewBox="0 0 67.733334 67.733333"
   version="1.1"
   id="svg323"
   inkscape:version="1.2.2 (732a01da63, 2022-12-09)"
   sodipodi:docname="cyclone.svg"
   xmlns:inkscape="http://www.inkscape.org/namespaces/inkscape"
   xmlns:sodipodi="http://sodipodi.sourceforge.net/DTD/sodipodi-0.dtd"
   xmlns="http://www.w3.org/2000/svg"
   xmlns:svg="http://www.w3.org/2000/svg">
  <sodipodi:namedview
     id="namedview325"
     pagecolor="#ffffff"
     bordercolor="#000000"
     borderopacity="0.25"
     inkscape:showpageshadow="2"
     inkscape:pageopacity="0.0"
     inkscape:pagecheckerboard="0"
     inkscape:deskcolor="#d1d1d1"
     inkscape:document-units="mm"
     showgrid="false"
     showborder="false"
     inkscape:zoom="2.0888418"
     inkscape:cx="72.049495"
     inkscape:cy="107.23646"
     inkscape:window-width="1920"
     inkscape:window-height="1057"
     inkscape:window-x="1912"
     inkscape:window-y="-8"
     inkscape:window-maximized="1"
     inkscape:current-layer="layer1" />
  <defs
     id="defs320" />
  <g
     inkscape:label="Layer 1"
     inkscape:groupmode="layer"
     id="layer1">
    <path
       style="fill:#999999;stroke:#999999;stroke-width:0.24127"
       d="m 37.149436,34.055448 c 21.511796,-8.904941 4.738371,-22.963394 4.738371,-22.963394 0,0 10.343025,14.357457 -4.738371,22.963394 z"
       id="path1165"
       sodipodi:nodetypes="ccc" />
    <path
       style="fill:#999999;stroke:#999999;stroke-width:0.24127"
       d="m 37.149436,34.055448 c 21.511796,-8.904941 4.738371,-22.963394 4.738371,-22.963394 0,0 10.343025,14.357457 -4.738371,22.963394 z"
       id="path1216"
       sodipodi:nodetypes="ccc" />
    <path
       style="fill:#999999;stroke:#999999;stroke-width:0.24127"
       d="m 37.008202,35.841285 c 20.433771,11.158688 20.851484,-10.723117 20.851484,-10.723117 0,0 -4.686283,17.063221 -20.851484,10.723117 z"
       id="path1216-1"
       sodipodi:nodetypes="ccc" />
    <path
       style="fill:#999999;stroke:#999999;stroke-width:0.24127"
       d="m 35.55074,37.044367 c -0.432265,23.278068 19.157305,13.519144 19.157305,13.519144 0,0 -17.294279,3.744684 -19.157305,-13.519144 z"
       id="path1216-1-2"
       sodipodi:nodetypes="ccc" />
    <path
       style="fill:#999999;stroke:#999999;stroke-width:0.24127"
       d="m 33.146092,36.458785 c -22.11413,7.281518 -6.431946,22.54772 -6.431946,22.54772 0,0 -9.247347,-15.086461 6.431946,-22.54772 z"
       id="path1216-1-2-2"
       sodipodi:nodetypes="ccc" />
    <path
       style="fill:#999999;stroke:#999999;stroke-width:0.24127"
       d="m 32.472456,33.660085 c -15.610302,-17.273498 -23.2213585,3.24624 -23.2213585,3.24624 0,0 10.0516065,-14.562965 23.2213585,-3.24624 z"
       id="path1216-1-2-2-9"
       sodipodi:nodetypes="ccc" />
    <path
       style="fill:#999999;stroke:#999999;stroke-width:0.24127"
       d="M 34.924037,32.322213 C 37.024768,9.1351002 16.785708,17.463863 16.785708,17.463863 c 0,0 17.51832,-2.494638 18.138329,14.85835 z"
       id="path1216-1-2-2-9-1"
       sodipodi:nodetypes="ccc" />
    <circle
       style="fill:none;stroke:#999999;stroke-width:2.565;stroke-dasharray:none"
       id="path1436"
       cy="34.661449"
       cx="34.735645"
       r="2.4066365" />
  </g>
</svg>
